<?xml version="1.0" encoding="UTF-8"?>
<svg width="850" height="290" viewBox="0 0 850 290" fill="none" xmlns="http://www.w3.org/2000/svg">
  <defs>
    <linearGradient id="colBg" x1="0" y1="0" x2="0" y2="290" gradientUnits="userSpaceOnUse">
      <stop offset="0%" stop-color="#0e172a"/>
      <stop offset="100%" stop-color="#0b0f19"/>
    </linearGradient>
  </defs>

  <style>
    .font-title { font-family: -apple-system, BlinkMacSystemFont, 'Segoe UI', Roboto, sans-serif; font-weight: 800; font-size: 13.5px; letter-spacing: 1px; }
    .font-item { font-family: -apple-system, BlinkMacSystemFont, 'Segoe UI', Roboto, sans-serif; font-weight: 600; font-size: 13px; }
  </style>

  <!-- COLUMN 1: FRONTEND -->
  <g transform="translate(0, 0)">
    <rect width="270" height="290" rx="14" fill="url(#colBg)" stroke="#1e293b" stroke-width="1.5"/>
    <rect x="0.75" y="0.75" width="268.5" height="42" rx="13.25" fill="#38bdf8" fill-opacity="0.08"/>
    <text x="20" y="27" fill="#38bdf8" class="font-title">🎨 FRONTEND</text>

    <!-- Items -->
    <g transform="translate(15, 54)">
      <!-- Item 1 -->
      <rect y="0" width="240" height="38" rx="8" fill="#ffffff" fill-opacity="0.03" stroke="#ffffff" stroke-opacity="0.06"/>
      <text x="14" y="24" fill="#f1f5f9" class="font-item">React.js</text>
      <circle cx="220" cy="19" r="4" fill="#38bdf8"/>

      <!-- Item 2 -->
      <rect y="46" width="240" height="38" rx="8" fill="#ffffff" fill-opacity="0.03" stroke="#ffffff" stroke-opacity="0.06"/>
      <text x="14" y="70" fill="#f1f5f9" class="font-item">JavaScript (ES6+)</text>
      <circle cx="220" cy="65" r="4" fill="#38bdf8"/>

      <!-- Item 3 -->
      <rect y="92" width="240" height="38" rx="8" fill="#ffffff" fill-opacity="0.03" stroke="#ffffff" stroke-opacity="0.06"/>
      <text x="14" y="116" fill="#f1f5f9" class="font-item">HTML5 &amp; CSS3</text>
      <circle cx="220" cy="111" r="4" fill="#38bdf8"/>

      <!-- Item 4 -->
      <rect y="138" width="240" height="38" rx="8" fill="#ffffff" fill-opacity="0.03" stroke="#ffffff" stroke-opacity="0.06"/>
      <text x="14" y="162" fill="#f1f5f9" class="font-item">Bootstrap 5</text>
      <circle cx="220" cy="157" r="4" fill="#38bdf8"/>

      <!-- Item 5 -->
      <rect y="184" width="240" height="38" rx="8" fill="#ffffff" fill-opacity="0.03" stroke="#ffffff" stroke-opacity="0.06"/>
      <text x="14" y="208" fill="#f1f5f9" class="font-item">jQuery</text>
      <circle cx="220" cy="203" r="4" fill="#38bdf8"/>
    </g>
  </g>

  <!-- COLUMN 2: BACKEND & DB -->
  <g transform="translate(290, 0)">
    <rect width="270" height="290" rx="14" fill="url(#colBg)" stroke="#1e293b" stroke-width="1.5"/>
    <rect x="0.75" y="0.75" width="268.5" height="42" rx="13.25" fill="#818cf8" fill-opacity="0.08"/>
    <text x="20" y="27" fill="#818cf8" class="font-title">⚙️ BACKEND &amp; DATA</text>

    <!-- Items -->
    <g transform="translate(15, 54)">
      <!-- Item 1 -->
      <rect y="0" width="240" height="38" rx="8" fill="#ffffff" fill-opacity="0.03" stroke="#ffffff" stroke-opacity="0.06"/>
      <text x="14" y="24" fill="#f1f5f9" class="font-item">PHP 8+ (Core &amp; OOP)</text>
      <circle cx="220" cy="19" r="4" fill="#818cf8"/>

      <!-- Item 2 -->
      <rect y="46" width="240" height="38" rx="8" fill="#ffffff" fill-opacity="0.03" stroke="#ffffff" stroke-opacity="0.06"/>
      <text x="14" y="70" fill="#f1f5f9" class="font-item">Laravel Framework</text>
      <circle cx="220" cy="65" r="4" fill="#818cf8"/>

      <!-- Item 3 -->
      <rect y="92" width="240" height="38" rx="8" fill="#ffffff" fill-opacity="0.03" stroke="#ffffff" stroke-opacity="0.06"/>
      <text x="14" y="116" fill="#f1f5f9" class="font-item">CodeIgniter</text>
      <circle cx="220" cy="111" r="4" fill="#818cf8"/>

      <!-- Item 4 -->
      <rect y="138" width="240" height="38" rx="8" fill="#ffffff" fill-opacity="0.03" stroke="#ffffff" stroke-opacity="0.06"/>
      <text x="14" y="162" fill="#f1f5f9" class="font-item">MySQL Database</text>
      <circle cx="220" cy="157" r="4" fill="#818cf8"/>

      <!-- Item 5 -->
      <rect y="184" width="240" height="38" rx="8" fill="#ffffff" fill-opacity="0.03" stroke="#ffffff" stroke-opacity="0.06"/>
      <text x="14" y="208" fill="#f1f5f9" class="font-item">RESTful APIs Architecture</text>
      <circle cx="220" cy="203" r="4" fill="#818cf8"/>
    </g>
  </g>

  <!-- COLUMN 3: DEVOPS & INFRASTRUCTURE -->
  <g transform="translate(580, 0)">
    <rect width="270" height="290" rx="14" fill="url(#colBg)" stroke="#1e293b" stroke-width="1.5"/>
    <rect x="0.75" y="0.75" width="268.5" height="42" rx="13.25" fill="#34d399" fill-opacity="0.08"/>
    <text x="20" y="27" fill="#34d399" class="font-title">🚀 DEVOPS &amp; CLOUD</text>

    <!-- Items -->
    <g transform="translate(15, 54)">
      <!-- Item 1 -->
      <rect y="0" width="240" height="38" rx="8" fill="#ffffff" fill-opacity="0.03" stroke="#ffffff" stroke-opacity="0.06"/>
      <text x="14" y="24" fill="#f1f5f9" class="font-item">Hostinger Cloud Hosting</text>
      <circle cx="220" cy="19" r="4" fill="#34d399"/>

      <!-- Item 2 -->
      <rect y="46" width="240" height="38" rx="8" fill="#ffffff" fill-opacity="0.03" stroke="#ffffff" stroke-opacity="0.06"/>
      <text x="14" y="70" fill="#f1f5f9" class="font-item">Linux VPS Servers</text>
      <circle cx="220" cy="65" r="4" fill="#34d399"/>

      <!-- Item 3 -->
      <rect y="92" width="240" height="38" rx="8" fill="#ffffff" fill-opacity="0.03" stroke="#ffffff" stroke-opacity="0.06"/>
      <text x="14" y="116" fill="#f1f5f9" class="font-item">Jenkins CI/CD Automation</text>
      <circle cx="220" cy="111" r="4" fill="#34d399"/>

      <!-- Item 4 -->
      <rect y="138" width="240" height="38" rx="8" fill="#ffffff" fill-opacity="0.03" stroke="#ffffff" stroke-opacity="0.06"/>
      <text x="14" y="162" fill="#f1f5f9" class="font-item">Docker Containers</text>
      <circle cx="220" cy="157" r="4" fill="#34d399"/>

      <!-- Item 5 -->
      <rect y="184" width="240" height="38" rx="8" fill="#ffffff" fill-opacity="0.03" stroke="#ffffff" stroke-opacity="0.06"/>
      <text x="14" y="208" fill="#f1f5f9" class="font-item">Git &amp; GitHub Version Control</text>
      <circle cx="220" cy="203" r="4" fill="#34d399"/>
    </g>
  </g>
</svg>
